<?xml version="1.0" encoding="utf-8"?><svg width="252" height="182" viewBox="0 0 252 182" xmlns="http://www.w3.org/2000/svg" xmlns:xlink="http://www.w3.org/1999/xlink"><svg id="comment" data-name="Layer 1" width="66" height="66" viewBox="-1 -1 66 66" xmlns="http://www.w3.org/2000/svg"><defs><style>.acls-1{fill:#2f5572}</style></defs><title>comment</title><path class="acls-1" d="M.72.08A.67.67 0 0 0 0 .8v46.48a.72.72 0 0 0 .72.72H48l16 16V.72a.67.67 0 0 0-.72-.72H.8z"/></svg><svg id="fire" data-name="Layer 1" width="58" height="66" viewBox="-1 -1 58 66" x="66" xmlns="http://www.w3.org/2000/svg"><defs><style>.bcls-1{fill:#d4953d}</style></defs><title>Untitled-2</title><path class="bcls-1" d="M16 0C24 16 0 24 0 40s16 24 16 24C8.16 48.16 32 40 32 24S16 0 16 0zm24 24c8 16-16 24-16 40h24c3.2 0 8-4 8-16 0-16-16-24-16-24z"/></svg><svg id="globe" data-name="Layer 1" width="66" height="66" viewBox="-1 -1 66 66" x="124" xmlns="http://www.w3.org/2000/svg"><defs><style>.ccls-1{fill:#d4953f}</style></defs><title>globe</title><path class="ccls-1" d="M32 0a32 32 0 1 0 32 32A32 32 0 0 0 32 0zm0 8a23.75 23.75 0 0 1 7.52 1.52c-1.68 1.6-3.6 3-3.28 4.48s5.52 1 5.52 4c0 2.16-3.36 2.8-1 5.28 2.8 2.8-5.12 7.84-5.28 11.52-.24 6.64 6.72 7.76 12.24 7.76 3.36 0 4.24 1.6 4 3.52a24.07 24.07 0 0 1-19.76 10 22.94 22.94 0 0 1-8.48-1.76c1.76-3.52-2.24-10.48-6-12.72-1.84-1.84-5.76-1.12-8-2a23.49 23.49 0 0 1-1.52-6.72 1.42 1.42 0 0 1 1.28-.72c1.52 0 3.6 3 4.72 2.72 1.4-.32-5.96-10.48-2.52-12.48 1.6-1 4.8 3.12 3.76-1.28-1-4.08 2.88-2.24 5.28-3.28 2.08-.88 3.6-3.28 1-4.72a8.55 8.55 0 0 1-1.76-1.52A23.75 23.75 0 0 1 32 8.08V8zm18.48 8.72A26.46 26.46 0 0 1 54 22.48v.24a11.78 11.78 0 0 1-1.76 1.76C50 26.72 49.68 22.8 48.72 22c-1-1-4.8.16-5.28-1-.56-1.48 4-3.4 7.04-4.28z"/></svg><svg id="mail" data-name="Layer 1" width="66" height="50" viewBox="-1 -1 66 50" y="66" xmlns="http://www.w3.org/2000/svg"><defs><style>.dcls-1{fill:#2f5572}</style></defs><title>mail</title><path class="dcls-1" d="M0 0v8l32 16L64 8V0H0zm0 16v32h64V16L32 32z"/></svg><svg id="rain" data-name="Layer 1" width="66" height="66" viewBox="-1 -1 66 66" y="116" xmlns="http://www.w3.org/2000/svg"><defs><style>.ecls-1{fill:#d4953f}</style></defs><title>rain</title><path class="ecls-1" d="M36 0a20.42 20.42 0 0 0-20 16A16 16 0 0 0 0 32a15.4 15.4 0 0 0 4.27 10.72A11.88 11.88 0 0 1 12 40a10.51 10.51 0 0 1 4.47 1A12 12 0 0 1 28 32a12.06 12.06 0 0 1 11.51 9A11.84 11.84 0 0 1 44 40a11.94 11.94 0 0 1 11 7.52A12.07 12.07 0 0 0 64 36c0-5.2-3.36-10.32-8-12v-4A20 20 0 0 0 36 0zm-9.27 40A4 4 0 0 0 24 44v16a4 4 0 1 0 8 0V44a4 4 0 0 0-4.71-4h-.56zm-16 8A4 4 0 0 0 8 52v8a4 4 0 1 0 8 0v-8a4 4 0 0 0-4.71-4h-.54zm32 0A4 4 0 0 0 40 52v8a4 4 0 1 0 8 0v-8a4 4 0 0 0-4.71-4h-.58z" transform="translate(-.04)"/></svg><svg id="star" data-name="Layer 1" width="66" height="66" viewBox="-1 -1 66 66" x="66" y="116" xmlns="http://www.w3.org/2000/svg"><defs><style>.fcls-1{fill:#d4953f}</style></defs><title>star</title><path class="fcls-1" d="M32 0l-8 24H0l20 16-8 24 20-16 20 16-8-24 20-16H40z"/></svg><svg id="wifi" data-name="Layer 1" width="62" height="66" viewBox="-1 -1 62 66" x="190" xmlns="http://www.w3.org/2000/svg"><defs><style>.gcls-1{fill:#d4953e}</style></defs><title>wifi</title><path class="gcls-1" d="M29.88 0A55.39 55.39 0 0 0 0 8.72l4.22 6.48a47.32 47.32 0 0 1 25.66-7.28 47.31 47.31 0 0 1 25.9 7.28L60 8.72A55.53 55.53 0 0 0 29.88 0zm0 24a31.08 31.08 0 0 0-17 5l4.22 6.72A23.09 23.09 0 0 1 29.8 32a24.17 24.17 0 0 1 13 3.76L47 29a32.37 32.37 0 0 0-17.2-5h.07zm0 24a8 8 0 1 0 8 8 8 8 0 0 0-8-8z"/></svg></svg>